<mxfile host="app.diagrams.net" modified="2023-06-11T01:45:57.388Z" agent="Mozilla/5.0 (Windows NT 10.0; Win64; x64) AppleWebKit/537.36 (KHTML, like Gecko) Chrome/114.0.0.0 Safari/537.36" etag="atUfx7OdV40lPttboaIw" version="21.3.8" type="device" pages="5">
  <diagram name="Data from device" id="2YBvvXClWsGukQMizWep">
    <mxGraphModel dx="1036" dy="559" grid="1" gridSize="10" guides="1" tooltips="1" connect="1" arrows="1" fold="1" page="1" pageScale="1" pageWidth="850" pageHeight="1100" math="0" shadow="0">
      <root>
        <mxCell id="0" />
        <mxCell id="1" parent="0" />
        <mxCell id="aM9ryv3xv72pqoxQDRHE-1" value="Khối thiết bị" style="shape=umlLifeline;perimeter=lifelinePerimeter;whiteSpace=wrap;html=1;container=0;dropTarget=0;collapsible=0;recursiveResize=0;outlineConnect=0;portConstraint=eastwest;newEdgeStyle={&quot;edgeStyle&quot;:&quot;elbowEdgeStyle&quot;,&quot;elbow&quot;:&quot;vertical&quot;,&quot;curved&quot;:0,&quot;rounded&quot;:0};" parent="1" vertex="1">
          <mxGeometry x="63" y="50" width="100" height="360" as="geometry" />
        </mxCell>
        <mxCell id="aM9ryv3xv72pqoxQDRHE-2" value="" style="html=1;points=[];perimeter=orthogonalPerimeter;outlineConnect=0;targetShapes=umlLifeline;portConstraint=eastwest;newEdgeStyle={&quot;edgeStyle&quot;:&quot;elbowEdgeStyle&quot;,&quot;elbow&quot;:&quot;vertical&quot;,&quot;curved&quot;:0,&quot;rounded&quot;:0};" parent="aM9ryv3xv72pqoxQDRHE-1" vertex="1">
          <mxGeometry x="45" y="90.21000000000001" width="10" height="60" as="geometry" />
        </mxCell>
        <mxCell id="aM9ryv3xv72pqoxQDRHE-3" value="Giá trị cảm biến" style="html=1;verticalAlign=bottom;startArrow=oval;endArrow=block;startSize=8;edgeStyle=elbowEdgeStyle;elbow=vertical;curved=0;rounded=0;" parent="aM9ryv3xv72pqoxQDRHE-1" target="aM9ryv3xv72pqoxQDRHE-2" edge="1">
          <mxGeometry relative="1" as="geometry">
            <mxPoint x="-53" y="90.21000000000001" as="sourcePoint" />
          </mxGeometry>
        </mxCell>
        <mxCell id="aM9ryv3xv72pqoxQDRHE-5" value="Khối cổng giao tiếp" style="shape=umlLifeline;perimeter=lifelinePerimeter;whiteSpace=wrap;html=1;container=0;dropTarget=0;collapsible=0;recursiveResize=0;outlineConnect=0;portConstraint=eastwest;newEdgeStyle={&quot;edgeStyle&quot;:&quot;elbowEdgeStyle&quot;,&quot;elbow&quot;:&quot;vertical&quot;,&quot;curved&quot;:0,&quot;rounded&quot;:0};" parent="1" vertex="1">
          <mxGeometry x="210" y="50" width="100" height="360" as="geometry" />
        </mxCell>
        <mxCell id="aM9ryv3xv72pqoxQDRHE-6" value="" style="html=1;points=[];perimeter=orthogonalPerimeter;outlineConnect=0;targetShapes=umlLifeline;portConstraint=eastwest;newEdgeStyle={&quot;edgeStyle&quot;:&quot;elbowEdgeStyle&quot;,&quot;elbow&quot;:&quot;vertical&quot;,&quot;curved&quot;:0,&quot;rounded&quot;:0};" parent="aM9ryv3xv72pqoxQDRHE-5" vertex="1">
          <mxGeometry x="45" y="100.21000000000001" width="10" height="50" as="geometry" />
        </mxCell>
        <mxCell id="aM9ryv3xv72pqoxQDRHE-7" value="LoRa" style="html=1;verticalAlign=bottom;endArrow=block;edgeStyle=elbowEdgeStyle;elbow=vertical;curved=0;rounded=0;" parent="1" source="aM9ryv3xv72pqoxQDRHE-2" target="aM9ryv3xv72pqoxQDRHE-6" edge="1">
          <mxGeometry x="-0.002" relative="1" as="geometry">
            <mxPoint x="218" y="160.21" as="sourcePoint" />
            <Array as="points">
              <mxPoint x="203" y="150.21" />
            </Array>
            <mxPoint as="offset" />
          </mxGeometry>
        </mxCell>
        <mxCell id="fdeKcLAtwtqGfmzfz4vG-1" value="Khối máy chủ" style="shape=umlLifeline;perimeter=lifelinePerimeter;whiteSpace=wrap;html=1;container=0;dropTarget=0;collapsible=0;recursiveResize=0;outlineConnect=0;portConstraint=eastwest;newEdgeStyle={&quot;edgeStyle&quot;:&quot;elbowEdgeStyle&quot;,&quot;elbow&quot;:&quot;vertical&quot;,&quot;curved&quot;:0,&quot;rounded&quot;:0};" parent="1" vertex="1">
          <mxGeometry x="360" y="50" width="100" height="360" as="geometry" />
        </mxCell>
        <mxCell id="fdeKcLAtwtqGfmzfz4vG-2" value="" style="html=1;points=[];perimeter=orthogonalPerimeter;outlineConnect=0;targetShapes=umlLifeline;portConstraint=eastwest;newEdgeStyle={&quot;edgeStyle&quot;:&quot;elbowEdgeStyle&quot;,&quot;elbow&quot;:&quot;vertical&quot;,&quot;curved&quot;:0,&quot;rounded&quot;:0};" parent="fdeKcLAtwtqGfmzfz4vG-1" vertex="1">
          <mxGeometry x="45" y="100.21000000000001" width="10" height="50" as="geometry" />
        </mxCell>
        <mxCell id="fdeKcLAtwtqGfmzfz4vG-16" value="" style="html=1;points=[];perimeter=orthogonalPerimeter;outlineConnect=0;targetShapes=umlLifeline;portConstraint=eastwest;newEdgeStyle={&quot;edgeStyle&quot;:&quot;elbowEdgeStyle&quot;,&quot;elbow&quot;:&quot;vertical&quot;,&quot;curved&quot;:0,&quot;rounded&quot;:0};" parent="fdeKcLAtwtqGfmzfz4vG-1" vertex="1">
          <mxGeometry x="45" y="200" width="10" height="110" as="geometry" />
        </mxCell>
        <mxCell id="fdeKcLAtwtqGfmzfz4vG-3" value="Khối ứng dụng" style="shape=umlLifeline;perimeter=lifelinePerimeter;whiteSpace=wrap;html=1;container=0;dropTarget=0;collapsible=0;recursiveResize=0;outlineConnect=0;portConstraint=eastwest;newEdgeStyle={&quot;edgeStyle&quot;:&quot;elbowEdgeStyle&quot;,&quot;elbow&quot;:&quot;vertical&quot;,&quot;curved&quot;:0,&quot;rounded&quot;:0};" parent="1" vertex="1">
          <mxGeometry x="660" y="50" width="100" height="360" as="geometry" />
        </mxCell>
        <mxCell id="fdeKcLAtwtqGfmzfz4vG-4" value="" style="html=1;points=[];perimeter=orthogonalPerimeter;outlineConnect=0;targetShapes=umlLifeline;portConstraint=eastwest;newEdgeStyle={&quot;edgeStyle&quot;:&quot;elbowEdgeStyle&quot;,&quot;elbow&quot;:&quot;vertical&quot;,&quot;curved&quot;:0,&quot;rounded&quot;:0};" parent="fdeKcLAtwtqGfmzfz4vG-3" vertex="1">
          <mxGeometry x="45" y="200" width="10" height="130" as="geometry" />
        </mxCell>
        <mxCell id="fdeKcLAtwtqGfmzfz4vG-42" value="" style="html=1;points=[];perimeter=orthogonalPerimeter;outlineConnect=0;targetShapes=umlLifeline;portConstraint=eastwest;newEdgeStyle={&quot;edgeStyle&quot;:&quot;elbowEdgeStyle&quot;,&quot;elbow&quot;:&quot;vertical&quot;,&quot;curved&quot;:0,&quot;rounded&quot;:0};" parent="fdeKcLAtwtqGfmzfz4vG-3" vertex="1">
          <mxGeometry x="50" y="300" width="10" height="25" as="geometry" />
        </mxCell>
        <mxCell id="fdeKcLAtwtqGfmzfz4vG-41" value="" style="endArrow=classic;html=1;rounded=0;" parent="fdeKcLAtwtqGfmzfz4vG-3" source="fdeKcLAtwtqGfmzfz4vG-42" target="fdeKcLAtwtqGfmzfz4vG-42" edge="1">
          <mxGeometry width="50" height="50" relative="1" as="geometry">
            <mxPoint x="70" y="310" as="sourcePoint" />
            <mxPoint x="120" y="300" as="targetPoint" />
          </mxGeometry>
        </mxCell>
        <mxCell id="fdeKcLAtwtqGfmzfz4vG-12" value="Cơ sở dữ liệu" style="shape=umlLifeline;perimeter=lifelinePerimeter;whiteSpace=wrap;html=1;container=0;dropTarget=0;collapsible=0;recursiveResize=0;outlineConnect=0;portConstraint=eastwest;newEdgeStyle={&quot;edgeStyle&quot;:&quot;elbowEdgeStyle&quot;,&quot;elbow&quot;:&quot;vertical&quot;,&quot;curved&quot;:0,&quot;rounded&quot;:0};" parent="1" vertex="1">
          <mxGeometry x="510" y="50" width="100" height="360" as="geometry" />
        </mxCell>
        <mxCell id="fdeKcLAtwtqGfmzfz4vG-13" value="" style="html=1;points=[];perimeter=orthogonalPerimeter;outlineConnect=0;targetShapes=umlLifeline;portConstraint=eastwest;newEdgeStyle={&quot;edgeStyle&quot;:&quot;elbowEdgeStyle&quot;,&quot;elbow&quot;:&quot;vertical&quot;,&quot;curved&quot;:0,&quot;rounded&quot;:0};" parent="fdeKcLAtwtqGfmzfz4vG-12" vertex="1">
          <mxGeometry x="45" y="100.21000000000001" width="10" height="50" as="geometry" />
        </mxCell>
        <mxCell id="fdeKcLAtwtqGfmzfz4vG-22" value="" style="html=1;points=[];perimeter=orthogonalPerimeter;outlineConnect=0;targetShapes=umlLifeline;portConstraint=eastwest;newEdgeStyle={&quot;edgeStyle&quot;:&quot;elbowEdgeStyle&quot;,&quot;elbow&quot;:&quot;vertical&quot;,&quot;curved&quot;:0,&quot;rounded&quot;:0};" parent="fdeKcLAtwtqGfmzfz4vG-12" vertex="1">
          <mxGeometry x="45" y="240" width="10" height="30" as="geometry" />
        </mxCell>
        <mxCell id="fdeKcLAtwtqGfmzfz4vG-18" value="REST API" style="edgeStyle=elbowEdgeStyle;rounded=0;orthogonalLoop=1;jettySize=auto;html=1;elbow=vertical;curved=0;" parent="1" source="fdeKcLAtwtqGfmzfz4vG-4" target="fdeKcLAtwtqGfmzfz4vG-16" edge="1">
          <mxGeometry x="-0.4138" relative="1" as="geometry">
            <Array as="points">
              <mxPoint x="470" y="260" />
              <mxPoint x="630" y="250" />
            </Array>
            <mxPoint as="offset" />
          </mxGeometry>
        </mxCell>
        <mxCell id="fdeKcLAtwtqGfmzfz4vG-19" value="request getData()" style="text;html=1;strokeColor=none;fillColor=none;align=center;verticalAlign=middle;whiteSpace=wrap;rounded=0;" parent="1" vertex="1">
          <mxGeometry x="570" y="234" width="110" height="15" as="geometry" />
        </mxCell>
        <mxCell id="fdeKcLAtwtqGfmzfz4vG-23" value="REST API" style="edgeStyle=elbowEdgeStyle;rounded=0;orthogonalLoop=1;jettySize=auto;html=1;elbow=vertical;curved=0;" parent="1" source="fdeKcLAtwtqGfmzfz4vG-16" target="fdeKcLAtwtqGfmzfz4vG-22" edge="1">
          <mxGeometry relative="1" as="geometry">
            <Array as="points">
              <mxPoint x="440" y="290" />
              <mxPoint x="450" y="280" />
            </Array>
          </mxGeometry>
        </mxCell>
        <mxCell id="fdeKcLAtwtqGfmzfz4vG-24" value="select()" style="text;html=1;strokeColor=none;fillColor=none;align=center;verticalAlign=middle;whiteSpace=wrap;rounded=0;" parent="1" vertex="1">
          <mxGeometry x="455" y="270" width="60" height="15" as="geometry" />
        </mxCell>
        <mxCell id="fdeKcLAtwtqGfmzfz4vG-29" style="edgeStyle=elbowEdgeStyle;rounded=0;orthogonalLoop=1;jettySize=auto;html=1;elbow=vertical;curved=0;dashed=1;" parent="1" source="fdeKcLAtwtqGfmzfz4vG-22" target="fdeKcLAtwtqGfmzfz4vG-16" edge="1">
          <mxGeometry relative="1" as="geometry">
            <Array as="points">
              <mxPoint x="440" y="320" />
              <mxPoint x="520" y="300" />
              <mxPoint x="490" y="305" />
              <mxPoint x="460" y="310" />
            </Array>
          </mxGeometry>
        </mxCell>
        <mxCell id="fdeKcLAtwtqGfmzfz4vG-31" value="REST API" style="edgeStyle=elbowEdgeStyle;rounded=0;orthogonalLoop=1;jettySize=auto;html=1;elbow=vertical;curved=0;" parent="1" source="fdeKcLAtwtqGfmzfz4vG-16" target="fdeKcLAtwtqGfmzfz4vG-4" edge="1">
          <mxGeometry x="0.4828" relative="1" as="geometry">
            <Array as="points">
              <mxPoint x="590" y="340" />
              <mxPoint x="510" y="350" />
              <mxPoint x="650" y="330" />
            </Array>
            <mxPoint as="offset" />
          </mxGeometry>
        </mxCell>
        <mxCell id="fdeKcLAtwtqGfmzfz4vG-32" value="response data" style="text;html=1;strokeColor=none;fillColor=none;align=center;verticalAlign=middle;whiteSpace=wrap;rounded=0;" parent="1" vertex="1">
          <mxGeometry x="590" y="318" width="80" height="15" as="geometry" />
        </mxCell>
        <mxCell id="fdeKcLAtwtqGfmzfz4vG-45" value="display data" style="text;html=1;strokeColor=none;fillColor=none;align=center;verticalAlign=middle;whiteSpace=wrap;rounded=0;" parent="1" vertex="1">
          <mxGeometry x="720" y="330" width="80" height="15" as="geometry" />
        </mxCell>
        <mxCell id="LWLzU6U1t8MEBD3MQ7TE-3" value="HTTP POST" style="edgeStyle=elbowEdgeStyle;rounded=0;orthogonalLoop=1;jettySize=auto;html=1;elbow=vertical;curved=0;" parent="1" source="aM9ryv3xv72pqoxQDRHE-6" target="fdeKcLAtwtqGfmzfz4vG-2" edge="1">
          <mxGeometry relative="1" as="geometry">
            <Array as="points">
              <mxPoint x="390" y="170" />
            </Array>
          </mxGeometry>
        </mxCell>
        <mxCell id="LWLzU6U1t8MEBD3MQ7TE-6" value="updateData()" style="text;html=1;strokeColor=none;fillColor=none;align=center;verticalAlign=middle;whiteSpace=wrap;rounded=0;" parent="1" vertex="1">
          <mxGeometry x="280" y="140" width="110" height="15" as="geometry" />
        </mxCell>
        <mxCell id="LWLzU6U1t8MEBD3MQ7TE-8" value="REST API" style="edgeStyle=elbowEdgeStyle;rounded=0;orthogonalLoop=1;jettySize=auto;html=1;elbow=vertical;curved=0;" parent="1" source="fdeKcLAtwtqGfmzfz4vG-2" target="fdeKcLAtwtqGfmzfz4vG-13" edge="1">
          <mxGeometry relative="1" as="geometry">
            <Array as="points">
              <mxPoint x="500" y="190" />
            </Array>
          </mxGeometry>
        </mxCell>
        <mxCell id="LWLzU6U1t8MEBD3MQ7TE-9" value="insert() and update()" style="text;html=1;strokeColor=none;fillColor=none;align=center;verticalAlign=middle;whiteSpace=wrap;rounded=0;" parent="1" vertex="1">
          <mxGeometry x="425" y="166" width="120" height="15" as="geometry" />
        </mxCell>
      </root>
    </mxGraphModel>
  </diagram>
  <diagram id="kVIo1cGWjDRShrbsVuJH" name="Control">
    <mxGraphModel dx="1036" dy="559" grid="1" gridSize="10" guides="1" tooltips="1" connect="1" arrows="1" fold="1" page="1" pageScale="1" pageWidth="850" pageHeight="1100" math="0" shadow="0">
      <root>
        <mxCell id="0" />
        <mxCell id="1" parent="0" />
        <mxCell id="x0jWkGLH49liQQJOusym-1" value="Khối thiết bị" style="shape=umlLifeline;perimeter=lifelinePerimeter;whiteSpace=wrap;html=1;container=0;dropTarget=0;collapsible=0;recursiveResize=0;outlineConnect=0;portConstraint=eastwest;newEdgeStyle={&quot;edgeStyle&quot;:&quot;elbowEdgeStyle&quot;,&quot;elbow&quot;:&quot;vertical&quot;,&quot;curved&quot;:0,&quot;rounded&quot;:0};" parent="1" vertex="1">
          <mxGeometry x="63" y="50" width="100" height="360" as="geometry" />
        </mxCell>
        <mxCell id="x0jWkGLH49liQQJOusym-2" value="" style="html=1;points=[];perimeter=orthogonalPerimeter;outlineConnect=0;targetShapes=umlLifeline;portConstraint=eastwest;newEdgeStyle={&quot;edgeStyle&quot;:&quot;elbowEdgeStyle&quot;,&quot;elbow&quot;:&quot;vertical&quot;,&quot;curved&quot;:0,&quot;rounded&quot;:0};" parent="x0jWkGLH49liQQJOusym-1" vertex="1">
          <mxGeometry x="45" y="260" width="10" height="80" as="geometry" />
        </mxCell>
        <mxCell id="7bMQ7k0cKSDPvlBEABWo-1" value="" style="html=1;points=[];perimeter=orthogonalPerimeter;outlineConnect=0;targetShapes=umlLifeline;portConstraint=eastwest;newEdgeStyle={&quot;edgeStyle&quot;:&quot;elbowEdgeStyle&quot;,&quot;elbow&quot;:&quot;vertical&quot;,&quot;curved&quot;:0,&quot;rounded&quot;:0};" parent="x0jWkGLH49liQQJOusym-1" vertex="1">
          <mxGeometry x="39" y="290" width="10" height="40" as="geometry" />
        </mxCell>
        <mxCell id="7bMQ7k0cKSDPvlBEABWo-3" style="edgeStyle=elbowEdgeStyle;rounded=0;orthogonalLoop=1;jettySize=auto;html=1;elbow=vertical;curved=0;" parent="x0jWkGLH49liQQJOusym-1" source="7bMQ7k0cKSDPvlBEABWo-1" target="7bMQ7k0cKSDPvlBEABWo-1" edge="1">
          <mxGeometry relative="1" as="geometry">
            <Array as="points">
              <mxPoint x="-3" y="310" />
            </Array>
          </mxGeometry>
        </mxCell>
        <mxCell id="x0jWkGLH49liQQJOusym-4" value="Khối cổng giao tiếp" style="shape=umlLifeline;perimeter=lifelinePerimeter;whiteSpace=wrap;html=1;container=0;dropTarget=0;collapsible=0;recursiveResize=0;outlineConnect=0;portConstraint=eastwest;newEdgeStyle={&quot;edgeStyle&quot;:&quot;elbowEdgeStyle&quot;,&quot;elbow&quot;:&quot;vertical&quot;,&quot;curved&quot;:0,&quot;rounded&quot;:0};" parent="1" vertex="1">
          <mxGeometry x="210" y="50" width="100" height="360" as="geometry" />
        </mxCell>
        <mxCell id="x0jWkGLH49liQQJOusym-5" value="" style="html=1;points=[];perimeter=orthogonalPerimeter;outlineConnect=0;targetShapes=umlLifeline;portConstraint=eastwest;newEdgeStyle={&quot;edgeStyle&quot;:&quot;elbowEdgeStyle&quot;,&quot;elbow&quot;:&quot;vertical&quot;,&quot;curved&quot;:0,&quot;rounded&quot;:0};" parent="x0jWkGLH49liQQJOusym-4" vertex="1">
          <mxGeometry x="45" y="190" width="10" height="150" as="geometry" />
        </mxCell>
        <mxCell id="x0jWkGLH49liQQJOusym-6" value="Khối máy chủ" style="shape=umlLifeline;perimeter=lifelinePerimeter;whiteSpace=wrap;html=1;container=0;dropTarget=0;collapsible=0;recursiveResize=0;outlineConnect=0;portConstraint=eastwest;newEdgeStyle={&quot;edgeStyle&quot;:&quot;elbowEdgeStyle&quot;,&quot;elbow&quot;:&quot;vertical&quot;,&quot;curved&quot;:0,&quot;rounded&quot;:0};" parent="1" vertex="1">
          <mxGeometry x="360" y="50" width="100" height="360" as="geometry" />
        </mxCell>
        <mxCell id="x0jWkGLH49liQQJOusym-7" value="" style="html=1;points=[];perimeter=orthogonalPerimeter;outlineConnect=0;targetShapes=umlLifeline;portConstraint=eastwest;newEdgeStyle={&quot;edgeStyle&quot;:&quot;elbowEdgeStyle&quot;,&quot;elbow&quot;:&quot;vertical&quot;,&quot;curved&quot;:0,&quot;rounded&quot;:0};" parent="x0jWkGLH49liQQJOusym-6" vertex="1">
          <mxGeometry x="45" y="110" width="10" height="30" as="geometry" />
        </mxCell>
        <mxCell id="11YFQgz2BTADCDudzu-W-3" value="" style="html=1;points=[];perimeter=orthogonalPerimeter;outlineConnect=0;targetShapes=umlLifeline;portConstraint=eastwest;newEdgeStyle={&quot;edgeStyle&quot;:&quot;elbowEdgeStyle&quot;,&quot;elbow&quot;:&quot;vertical&quot;,&quot;curved&quot;:0,&quot;rounded&quot;:0};" parent="x0jWkGLH49liQQJOusym-6" vertex="1">
          <mxGeometry x="45" y="190" width="10" height="150" as="geometry" />
        </mxCell>
        <mxCell id="x0jWkGLH49liQQJOusym-9" value="Khối ứng dụng" style="shape=umlLifeline;perimeter=lifelinePerimeter;whiteSpace=wrap;html=1;container=0;dropTarget=0;collapsible=0;recursiveResize=0;outlineConnect=0;portConstraint=eastwest;newEdgeStyle={&quot;edgeStyle&quot;:&quot;elbowEdgeStyle&quot;,&quot;elbow&quot;:&quot;vertical&quot;,&quot;curved&quot;:0,&quot;rounded&quot;:0};" parent="1" vertex="1">
          <mxGeometry x="660" y="50" width="100" height="360" as="geometry" />
        </mxCell>
        <mxCell id="x0jWkGLH49liQQJOusym-16" value="" style="html=1;points=[];perimeter=orthogonalPerimeter;outlineConnect=0;targetShapes=umlLifeline;portConstraint=eastwest;newEdgeStyle={&quot;edgeStyle&quot;:&quot;elbowEdgeStyle&quot;,&quot;elbow&quot;:&quot;vertical&quot;,&quot;curved&quot;:0,&quot;rounded&quot;:0};" parent="x0jWkGLH49liQQJOusym-9" vertex="1">
          <mxGeometry x="45" y="70" width="10" height="50" as="geometry" />
        </mxCell>
        <mxCell id="x0jWkGLH49liQQJOusym-18" value="" style="html=1;points=[];perimeter=orthogonalPerimeter;outlineConnect=0;targetShapes=umlLifeline;portConstraint=eastwest;newEdgeStyle={&quot;edgeStyle&quot;:&quot;elbowEdgeStyle&quot;,&quot;elbow&quot;:&quot;vertical&quot;,&quot;curved&quot;:0,&quot;rounded&quot;:0};" parent="x0jWkGLH49liQQJOusym-9" vertex="1">
          <mxGeometry x="51" y="70" width="10" height="30" as="geometry" />
        </mxCell>
        <mxCell id="x0jWkGLH49liQQJOusym-20" style="edgeStyle=elbowEdgeStyle;rounded=0;orthogonalLoop=1;jettySize=auto;html=1;elbow=vertical;curved=0;" parent="x0jWkGLH49liQQJOusym-9" source="x0jWkGLH49liQQJOusym-18" target="x0jWkGLH49liQQJOusym-18" edge="1">
          <mxGeometry relative="1" as="geometry" />
        </mxCell>
        <mxCell id="x0jWkGLH49liQQJOusym-13" value="Cơ sở dữ liệu" style="shape=umlLifeline;perimeter=lifelinePerimeter;whiteSpace=wrap;html=1;container=0;dropTarget=0;collapsible=0;recursiveResize=0;outlineConnect=0;portConstraint=eastwest;newEdgeStyle={&quot;edgeStyle&quot;:&quot;elbowEdgeStyle&quot;,&quot;elbow&quot;:&quot;vertical&quot;,&quot;curved&quot;:0,&quot;rounded&quot;:0};" parent="1" vertex="1">
          <mxGeometry x="510" y="50" width="100" height="360" as="geometry" />
        </mxCell>
        <mxCell id="x0jWkGLH49liQQJOusym-14" value="" style="html=1;points=[];perimeter=orthogonalPerimeter;outlineConnect=0;targetShapes=umlLifeline;portConstraint=eastwest;newEdgeStyle={&quot;edgeStyle&quot;:&quot;elbowEdgeStyle&quot;,&quot;elbow&quot;:&quot;vertical&quot;,&quot;curved&quot;:0,&quot;rounded&quot;:0};" parent="x0jWkGLH49liQQJOusym-13" vertex="1">
          <mxGeometry x="45" y="120" width="10" height="40" as="geometry" />
        </mxCell>
        <mxCell id="11YFQgz2BTADCDudzu-W-7" value="" style="html=1;points=[];perimeter=orthogonalPerimeter;outlineConnect=0;targetShapes=umlLifeline;portConstraint=eastwest;newEdgeStyle={&quot;edgeStyle&quot;:&quot;elbowEdgeStyle&quot;,&quot;elbow&quot;:&quot;vertical&quot;,&quot;curved&quot;:0,&quot;rounded&quot;:0};" parent="x0jWkGLH49liQQJOusym-13" vertex="1">
          <mxGeometry x="45" y="200" width="10" height="140" as="geometry" />
        </mxCell>
        <mxCell id="x0jWkGLH49liQQJOusym-21" value="Control" style="text;html=1;strokeColor=none;fillColor=none;align=center;verticalAlign=middle;whiteSpace=wrap;rounded=0;" parent="1" vertex="1">
          <mxGeometry x="715" y="100" width="60" height="30" as="geometry" />
        </mxCell>
        <mxCell id="x0jWkGLH49liQQJOusym-22" value="REST API" style="edgeStyle=elbowEdgeStyle;rounded=0;orthogonalLoop=1;jettySize=auto;html=1;elbow=vertical;curved=0;" parent="1" source="x0jWkGLH49liQQJOusym-16" target="x0jWkGLH49liQQJOusym-7" edge="1">
          <mxGeometry x="-0.5517" relative="1" as="geometry">
            <Array as="points">
              <mxPoint x="590" y="160" />
            </Array>
            <mxPoint as="offset" />
          </mxGeometry>
        </mxCell>
        <mxCell id="x0jWkGLH49liQQJOusym-24" value="REST API" style="edgeStyle=elbowEdgeStyle;rounded=0;orthogonalLoop=1;jettySize=auto;html=1;elbow=vertical;curved=0;" parent="1" source="x0jWkGLH49liQQJOusym-7" target="x0jWkGLH49liQQJOusym-14" edge="1">
          <mxGeometry relative="1" as="geometry">
            <Array as="points">
              <mxPoint x="530" y="190" />
              <mxPoint x="520" y="205" />
            </Array>
          </mxGeometry>
        </mxCell>
        <mxCell id="x0jWkGLH49liQQJOusym-25" value="serverData()" style="text;html=1;strokeColor=none;fillColor=none;align=center;verticalAlign=middle;whiteSpace=wrap;rounded=0;" parent="1" vertex="1">
          <mxGeometry x="590" y="130" width="100" height="30" as="geometry" />
        </mxCell>
        <mxCell id="11YFQgz2BTADCDudzu-W-4" value="HTTP GET" style="edgeStyle=elbowEdgeStyle;rounded=0;orthogonalLoop=1;jettySize=auto;html=1;elbow=vertical;curved=0;" parent="1" source="x0jWkGLH49liQQJOusym-5" target="11YFQgz2BTADCDudzu-W-3" edge="1">
          <mxGeometry relative="1" as="geometry">
            <Array as="points">
              <mxPoint x="370" y="240" />
            </Array>
          </mxGeometry>
        </mxCell>
        <mxCell id="11YFQgz2BTADCDudzu-W-6" value="getData()" style="text;html=1;strokeColor=none;fillColor=none;align=center;verticalAlign=middle;whiteSpace=wrap;rounded=0;" parent="1" vertex="1">
          <mxGeometry x="286" y="210" width="100" height="30" as="geometry" />
        </mxCell>
        <mxCell id="11YFQgz2BTADCDudzu-W-9" value="REST API" style="edgeStyle=elbowEdgeStyle;rounded=0;orthogonalLoop=1;jettySize=auto;html=1;elbow=vertical;curved=0;" parent="1" source="11YFQgz2BTADCDudzu-W-3" target="11YFQgz2BTADCDudzu-W-7" edge="1">
          <mxGeometry relative="1" as="geometry">
            <Array as="points">
              <mxPoint x="500" y="260" />
            </Array>
          </mxGeometry>
        </mxCell>
        <mxCell id="11YFQgz2BTADCDudzu-W-10" value="select()" style="text;html=1;strokeColor=none;fillColor=none;align=center;verticalAlign=middle;whiteSpace=wrap;rounded=0;" parent="1" vertex="1">
          <mxGeometry x="436" y="230" width="100" height="30" as="geometry" />
        </mxCell>
        <mxCell id="11YFQgz2BTADCDudzu-W-11" value="update()" style="text;html=1;strokeColor=none;fillColor=none;align=center;verticalAlign=middle;whiteSpace=wrap;rounded=0;" parent="1" vertex="1">
          <mxGeometry x="436" y="194" width="100" height="30" as="geometry" />
        </mxCell>
        <mxCell id="11YFQgz2BTADCDudzu-W-12" style="edgeStyle=elbowEdgeStyle;rounded=0;orthogonalLoop=1;jettySize=auto;html=1;elbow=vertical;curved=0;dashed=1;" parent="1" source="11YFQgz2BTADCDudzu-W-7" target="11YFQgz2BTADCDudzu-W-3" edge="1">
          <mxGeometry relative="1" as="geometry">
            <Array as="points">
              <mxPoint x="520" y="280" />
            </Array>
          </mxGeometry>
        </mxCell>
        <mxCell id="11YFQgz2BTADCDudzu-W-13" style="edgeStyle=elbowEdgeStyle;rounded=0;orthogonalLoop=1;jettySize=auto;html=1;elbow=vertical;curved=0;dashed=1;" parent="1" source="11YFQgz2BTADCDudzu-W-3" target="x0jWkGLH49liQQJOusym-5" edge="1">
          <mxGeometry relative="1" as="geometry">
            <Array as="points">
              <mxPoint x="330" y="300" />
            </Array>
          </mxGeometry>
        </mxCell>
        <mxCell id="11YFQgz2BTADCDudzu-W-14" value="LoRa" style="edgeStyle=elbowEdgeStyle;rounded=0;orthogonalLoop=1;jettySize=auto;html=1;elbow=vertical;curved=0;" parent="1" source="x0jWkGLH49liQQJOusym-5" target="x0jWkGLH49liQQJOusym-2" edge="1">
          <mxGeometry relative="1" as="geometry">
            <Array as="points">
              <mxPoint x="150" y="320" />
            </Array>
          </mxGeometry>
        </mxCell>
        <mxCell id="11YFQgz2BTADCDudzu-W-15" value="updateData()" style="text;html=1;strokeColor=none;fillColor=none;align=center;verticalAlign=middle;whiteSpace=wrap;rounded=0;" parent="1" vertex="1">
          <mxGeometry x="140" y="290" width="100" height="30" as="geometry" />
        </mxCell>
        <mxCell id="7bMQ7k0cKSDPvlBEABWo-4" value="control()" style="text;html=1;strokeColor=none;fillColor=none;align=center;verticalAlign=middle;whiteSpace=wrap;rounded=0;" parent="1" vertex="1">
          <mxGeometry x="10" y="320" width="100" height="30" as="geometry" />
        </mxCell>
        <mxCell id="7bMQ7k0cKSDPvlBEABWo-5" value="LoRa" style="edgeStyle=elbowEdgeStyle;rounded=0;orthogonalLoop=1;jettySize=auto;html=1;elbow=vertical;curved=0;" parent="1" source="x0jWkGLH49liQQJOusym-2" target="x0jWkGLH49liQQJOusym-5" edge="1">
          <mxGeometry relative="1" as="geometry" />
        </mxCell>
        <mxCell id="7bMQ7k0cKSDPvlBEABWo-6" value="responseData()" style="text;html=1;strokeColor=none;fillColor=none;align=center;verticalAlign=middle;whiteSpace=wrap;rounded=0;" parent="1" vertex="1">
          <mxGeometry x="130" y="354" width="100" height="30" as="geometry" />
        </mxCell>
        <mxCell id="7bMQ7k0cKSDPvlBEABWo-8" value="HTTP POST" style="edgeStyle=elbowEdgeStyle;rounded=0;orthogonalLoop=1;jettySize=auto;html=1;elbow=vertical;curved=0;" parent="1" source="x0jWkGLH49liQQJOusym-5" target="11YFQgz2BTADCDudzu-W-3" edge="1">
          <mxGeometry relative="1" as="geometry">
            <Array as="points">
              <mxPoint x="360" y="360" />
            </Array>
          </mxGeometry>
        </mxCell>
        <mxCell id="7bMQ7k0cKSDPvlBEABWo-9" value="updateDeviceData()" style="text;html=1;strokeColor=none;fillColor=none;align=center;verticalAlign=middle;whiteSpace=wrap;rounded=0;" parent="1" vertex="1">
          <mxGeometry x="286" y="330" width="100" height="30" as="geometry" />
        </mxCell>
        <mxCell id="7bMQ7k0cKSDPvlBEABWo-10" value="REST API" style="edgeStyle=elbowEdgeStyle;rounded=0;orthogonalLoop=1;jettySize=auto;html=1;elbow=vertical;curved=0;" parent="1" source="11YFQgz2BTADCDudzu-W-3" target="11YFQgz2BTADCDudzu-W-7" edge="1">
          <mxGeometry relative="1" as="geometry">
            <Array as="points">
              <mxPoint x="500" y="380" />
            </Array>
          </mxGeometry>
        </mxCell>
        <mxCell id="7bMQ7k0cKSDPvlBEABWo-11" value="update()" style="text;html=1;strokeColor=none;fillColor=none;align=center;verticalAlign=middle;whiteSpace=wrap;rounded=0;" parent="1" vertex="1">
          <mxGeometry x="437" y="350" width="100" height="30" as="geometry" />
        </mxCell>
      </root>
    </mxGraphModel>
  </diagram>
  <diagram id="efjoEwgSgt8tTlNf9ANP" name="React-Com-Node">
    <mxGraphModel dx="1036" dy="559" grid="1" gridSize="10" guides="1" tooltips="1" connect="1" arrows="1" fold="1" page="1" pageScale="1" pageWidth="850" pageHeight="1100" math="0" shadow="0">
      <root>
        <mxCell id="0" />
        <mxCell id="1" parent="0" />
        <mxCell id="Clj5HYqZ9Xwfr-CM7hlV-1" value="" style="shape=image;verticalLabelPosition=bottom;labelBackgroundColor=default;verticalAlign=top;aspect=fixed;imageAspect=0;image=https://bezkoder.com/wp-content/uploads/2020/03/react-node-express-mysql-crud-example-architecture.png;" parent="1" vertex="1">
          <mxGeometry width="700" height="256" as="geometry" />
        </mxCell>
        <mxCell id="Clj5HYqZ9Xwfr-CM7hlV-2" value="" style="rounded=0;whiteSpace=wrap;html=1;strokeColor=none;" parent="1" vertex="1">
          <mxGeometry x="580" y="20" width="120" height="60" as="geometry" />
        </mxCell>
        <mxCell id="Clj5HYqZ9Xwfr-CM7hlV-3" value="&lt;b&gt;Database&lt;/b&gt;" style="text;html=1;align=center;verticalAlign=middle;whiteSpace=wrap;rounded=0;fillColor=default;" parent="1" vertex="1">
          <mxGeometry x="600" y="130" width="70" height="50" as="geometry" />
        </mxCell>
      </root>
    </mxGraphModel>
  </diagram>
  <diagram id="ad36gkO7GCjmrh8B9UDG" name="Auth">
    <mxGraphModel dx="863" dy="418" grid="1" gridSize="10" guides="1" tooltips="1" connect="1" arrows="1" fold="1" page="1" pageScale="1" pageWidth="850" pageHeight="1100" math="0" shadow="0">
      <root>
        <mxCell id="0" />
        <mxCell id="1" parent="0" />
        <mxCell id="W4LYHyJxTiFgDsJ-k4IW-1" value="React.js&lt;br&gt;(Client)" style="shape=umlLifeline;perimeter=lifelinePerimeter;whiteSpace=wrap;html=1;container=0;dropTarget=0;collapsible=0;recursiveResize=0;outlineConnect=0;portConstraint=eastwest;newEdgeStyle={&quot;edgeStyle&quot;:&quot;elbowEdgeStyle&quot;,&quot;elbow&quot;:&quot;vertical&quot;,&quot;curved&quot;:0,&quot;rounded&quot;:0};" vertex="1" parent="1">
          <mxGeometry x="130" y="10" width="100" height="230" as="geometry" />
        </mxCell>
        <mxCell id="W4LYHyJxTiFgDsJ-k4IW-2" value="" style="html=1;points=[];perimeter=orthogonalPerimeter;outlineConnect=0;targetShapes=umlLifeline;portConstraint=eastwest;newEdgeStyle={&quot;edgeStyle&quot;:&quot;elbowEdgeStyle&quot;,&quot;elbow&quot;:&quot;vertical&quot;,&quot;curved&quot;:0,&quot;rounded&quot;:0};" vertex="1" parent="W4LYHyJxTiFgDsJ-k4IW-1">
          <mxGeometry x="45" y="80" width="10" height="120" as="geometry" />
        </mxCell>
        <mxCell id="W4LYHyJxTiFgDsJ-k4IW-5" value="Node.js&lt;br&gt;(Server)" style="shape=umlLifeline;perimeter=lifelinePerimeter;whiteSpace=wrap;html=1;container=0;dropTarget=0;collapsible=0;recursiveResize=0;outlineConnect=0;portConstraint=eastwest;newEdgeStyle={&quot;edgeStyle&quot;:&quot;elbowEdgeStyle&quot;,&quot;elbow&quot;:&quot;vertical&quot;,&quot;curved&quot;:0,&quot;rounded&quot;:0};" vertex="1" parent="1">
          <mxGeometry x="450" y="10" width="100" height="230" as="geometry" />
        </mxCell>
        <mxCell id="W4LYHyJxTiFgDsJ-k4IW-6" value="" style="html=1;points=[];perimeter=orthogonalPerimeter;outlineConnect=0;targetShapes=umlLifeline;portConstraint=eastwest;newEdgeStyle={&quot;edgeStyle&quot;:&quot;elbowEdgeStyle&quot;,&quot;elbow&quot;:&quot;vertical&quot;,&quot;curved&quot;:0,&quot;rounded&quot;:0};" vertex="1" parent="W4LYHyJxTiFgDsJ-k4IW-5">
          <mxGeometry x="45" y="80" width="10" height="120" as="geometry" />
        </mxCell>
        <mxCell id="W4LYHyJxTiFgDsJ-k4IW-13" value="" style="html=1;points=[];perimeter=orthogonalPerimeter;outlineConnect=0;targetShapes=umlLifeline;portConstraint=eastwest;newEdgeStyle={&quot;edgeStyle&quot;:&quot;elbowEdgeStyle&quot;,&quot;elbow&quot;:&quot;vertical&quot;,&quot;curved&quot;:0,&quot;rounded&quot;:0};" vertex="1" parent="W4LYHyJxTiFgDsJ-k4IW-5">
          <mxGeometry x="51" y="100" width="10" height="40" as="geometry" />
        </mxCell>
        <mxCell id="W4LYHyJxTiFgDsJ-k4IW-14" style="edgeStyle=elbowEdgeStyle;rounded=0;orthogonalLoop=1;jettySize=auto;html=1;elbow=vertical;curved=0;" edge="1" parent="W4LYHyJxTiFgDsJ-k4IW-5" source="W4LYHyJxTiFgDsJ-k4IW-13" target="W4LYHyJxTiFgDsJ-k4IW-13">
          <mxGeometry relative="1" as="geometry" />
        </mxCell>
        <mxCell id="W4LYHyJxTiFgDsJ-k4IW-17" value="" style="html=1;points=[];perimeter=orthogonalPerimeter;outlineConnect=0;targetShapes=umlLifeline;portConstraint=eastwest;newEdgeStyle={&quot;edgeStyle&quot;:&quot;elbowEdgeStyle&quot;,&quot;elbow&quot;:&quot;vertical&quot;,&quot;curved&quot;:0,&quot;rounded&quot;:0};" vertex="1" parent="W4LYHyJxTiFgDsJ-k4IW-5">
          <mxGeometry x="51" y="150" width="10" height="40" as="geometry" />
        </mxCell>
        <mxCell id="W4LYHyJxTiFgDsJ-k4IW-18" style="edgeStyle=elbowEdgeStyle;rounded=0;orthogonalLoop=1;jettySize=auto;html=1;elbow=vertical;curved=0;" edge="1" parent="W4LYHyJxTiFgDsJ-k4IW-5" source="W4LYHyJxTiFgDsJ-k4IW-17" target="W4LYHyJxTiFgDsJ-k4IW-17">
          <mxGeometry relative="1" as="geometry" />
        </mxCell>
        <mxCell id="W4LYHyJxTiFgDsJ-k4IW-11" value="POST /database/createUser with user&#39;s info" style="text;html=1;strokeColor=none;fillColor=none;align=center;verticalAlign=middle;whiteSpace=wrap;rounded=0;" vertex="1" parent="1">
          <mxGeometry x="220" y="70" width="240" height="30" as="geometry" />
        </mxCell>
        <mxCell id="W4LYHyJxTiFgDsJ-k4IW-12" style="edgeStyle=elbowEdgeStyle;rounded=0;orthogonalLoop=1;jettySize=auto;html=1;elbow=vertical;curved=0;" edge="1" parent="1" source="W4LYHyJxTiFgDsJ-k4IW-2" target="W4LYHyJxTiFgDsJ-k4IW-6">
          <mxGeometry relative="1" as="geometry">
            <Array as="points">
              <mxPoint x="380" y="100" />
              <mxPoint x="320" y="110" />
              <mxPoint x="430" y="80" />
            </Array>
          </mxGeometry>
        </mxCell>
        <mxCell id="W4LYHyJxTiFgDsJ-k4IW-16" value="argon2.hash(password)" style="text;html=1;strokeColor=none;fillColor=none;align=center;verticalAlign=middle;whiteSpace=wrap;rounded=0;" vertex="1" parent="1">
          <mxGeometry x="520" y="90" width="120" height="30" as="geometry" />
        </mxCell>
        <mxCell id="W4LYHyJxTiFgDsJ-k4IW-19" value="Insert user to database" style="text;html=1;strokeColor=none;fillColor=none;align=center;verticalAlign=middle;whiteSpace=wrap;rounded=0;" vertex="1" parent="1">
          <mxGeometry x="515" y="145" width="130" height="30" as="geometry" />
        </mxCell>
        <mxCell id="W4LYHyJxTiFgDsJ-k4IW-21" style="edgeStyle=elbowEdgeStyle;rounded=0;orthogonalLoop=1;jettySize=auto;html=1;elbow=vertical;curved=0;" edge="1" parent="1" source="W4LYHyJxTiFgDsJ-k4IW-6" target="W4LYHyJxTiFgDsJ-k4IW-2">
          <mxGeometry relative="1" as="geometry">
            <Array as="points">
              <mxPoint x="310" y="200" />
            </Array>
          </mxGeometry>
        </mxCell>
        <mxCell id="W4LYHyJxTiFgDsJ-k4IW-22" value="Response status" style="text;html=1;strokeColor=none;fillColor=none;align=center;verticalAlign=middle;whiteSpace=wrap;rounded=0;" vertex="1" parent="1">
          <mxGeometry x="220" y="175" width="240" height="30" as="geometry" />
        </mxCell>
      </root>
    </mxGraphModel>
  </diagram>
  <diagram id="dHt96ogK-4yqs_EQzbDt" name="Login">
    <mxGraphModel dx="863" dy="418" grid="1" gridSize="10" guides="1" tooltips="1" connect="1" arrows="1" fold="1" page="1" pageScale="1" pageWidth="850" pageHeight="1100" math="0" shadow="0">
      <root>
        <mxCell id="0" />
        <mxCell id="1" parent="0" />
        <mxCell id="c3zvvCpYIQOxK_N1lzKl-1" value="React.js&lt;br&gt;(Client)" style="shape=umlLifeline;perimeter=lifelinePerimeter;whiteSpace=wrap;html=1;container=0;dropTarget=0;collapsible=0;recursiveResize=0;outlineConnect=0;portConstraint=eastwest;newEdgeStyle={&quot;edgeStyle&quot;:&quot;elbowEdgeStyle&quot;,&quot;elbow&quot;:&quot;vertical&quot;,&quot;curved&quot;:0,&quot;rounded&quot;:0};" vertex="1" parent="1">
          <mxGeometry x="130" y="10" width="100" height="360" as="geometry" />
        </mxCell>
        <mxCell id="c3zvvCpYIQOxK_N1lzKl-2" value="" style="html=1;points=[];perimeter=orthogonalPerimeter;outlineConnect=0;targetShapes=umlLifeline;portConstraint=eastwest;newEdgeStyle={&quot;edgeStyle&quot;:&quot;elbowEdgeStyle&quot;,&quot;elbow&quot;:&quot;vertical&quot;,&quot;curved&quot;:0,&quot;rounded&quot;:0};" vertex="1" parent="c3zvvCpYIQOxK_N1lzKl-1">
          <mxGeometry x="45" y="80" width="10" height="190" as="geometry" />
        </mxCell>
        <mxCell id="c3zvvCpYIQOxK_N1lzKl-17" value="" style="html=1;points=[];perimeter=orthogonalPerimeter;outlineConnect=0;targetShapes=umlLifeline;portConstraint=eastwest;newEdgeStyle={&quot;edgeStyle&quot;:&quot;elbowEdgeStyle&quot;,&quot;elbow&quot;:&quot;vertical&quot;,&quot;curved&quot;:0,&quot;rounded&quot;:0};" vertex="1" parent="c3zvvCpYIQOxK_N1lzKl-1">
          <mxGeometry x="40" y="133" width="10" height="40" as="geometry" />
        </mxCell>
        <mxCell id="c3zvvCpYIQOxK_N1lzKl-18" style="edgeStyle=elbowEdgeStyle;rounded=0;orthogonalLoop=1;jettySize=auto;html=1;elbow=vertical;curved=0;" edge="1" parent="c3zvvCpYIQOxK_N1lzKl-1" source="c3zvvCpYIQOxK_N1lzKl-17" target="c3zvvCpYIQOxK_N1lzKl-17">
          <mxGeometry relative="1" as="geometry">
            <Array as="points">
              <mxPoint x="20" y="153" />
            </Array>
          </mxGeometry>
        </mxCell>
        <mxCell id="c3zvvCpYIQOxK_N1lzKl-3" value="Node.js&lt;br&gt;(Server)" style="shape=umlLifeline;perimeter=lifelinePerimeter;whiteSpace=wrap;html=1;container=0;dropTarget=0;collapsible=0;recursiveResize=0;outlineConnect=0;portConstraint=eastwest;newEdgeStyle={&quot;edgeStyle&quot;:&quot;elbowEdgeStyle&quot;,&quot;elbow&quot;:&quot;vertical&quot;,&quot;curved&quot;:0,&quot;rounded&quot;:0};" vertex="1" parent="1">
          <mxGeometry x="450" y="10" width="100" height="360" as="geometry" />
        </mxCell>
        <mxCell id="c3zvvCpYIQOxK_N1lzKl-4" value="" style="html=1;points=[];perimeter=orthogonalPerimeter;outlineConnect=0;targetShapes=umlLifeline;portConstraint=eastwest;newEdgeStyle={&quot;edgeStyle&quot;:&quot;elbowEdgeStyle&quot;,&quot;elbow&quot;:&quot;vertical&quot;,&quot;curved&quot;:0,&quot;rounded&quot;:0};" vertex="1" parent="c3zvvCpYIQOxK_N1lzKl-3">
          <mxGeometry x="45" y="80" width="10" height="190" as="geometry" />
        </mxCell>
        <mxCell id="c3zvvCpYIQOxK_N1lzKl-7" value="" style="html=1;points=[];perimeter=orthogonalPerimeter;outlineConnect=0;targetShapes=umlLifeline;portConstraint=eastwest;newEdgeStyle={&quot;edgeStyle&quot;:&quot;elbowEdgeStyle&quot;,&quot;elbow&quot;:&quot;vertical&quot;,&quot;curved&quot;:0,&quot;rounded&quot;:0};" vertex="1" parent="c3zvvCpYIQOxK_N1lzKl-3">
          <mxGeometry x="51" y="90" width="10" height="40" as="geometry" />
        </mxCell>
        <mxCell id="c3zvvCpYIQOxK_N1lzKl-8" style="edgeStyle=elbowEdgeStyle;rounded=0;orthogonalLoop=1;jettySize=auto;html=1;elbow=vertical;curved=0;" edge="1" parent="c3zvvCpYIQOxK_N1lzKl-3" source="c3zvvCpYIQOxK_N1lzKl-7" target="c3zvvCpYIQOxK_N1lzKl-7">
          <mxGeometry relative="1" as="geometry" />
        </mxCell>
        <mxCell id="c3zvvCpYIQOxK_N1lzKl-22" value="" style="html=1;points=[];perimeter=orthogonalPerimeter;outlineConnect=0;targetShapes=umlLifeline;portConstraint=eastwest;newEdgeStyle={&quot;edgeStyle&quot;:&quot;elbowEdgeStyle&quot;,&quot;elbow&quot;:&quot;vertical&quot;,&quot;curved&quot;:0,&quot;rounded&quot;:0};" vertex="1" parent="c3zvvCpYIQOxK_N1lzKl-3">
          <mxGeometry x="51" y="180" width="10" height="40" as="geometry" />
        </mxCell>
        <mxCell id="c3zvvCpYIQOxK_N1lzKl-23" style="edgeStyle=elbowEdgeStyle;rounded=0;orthogonalLoop=1;jettySize=auto;html=1;elbow=vertical;curved=0;" edge="1" parent="c3zvvCpYIQOxK_N1lzKl-3" source="c3zvvCpYIQOxK_N1lzKl-22" target="c3zvvCpYIQOxK_N1lzKl-22">
          <mxGeometry relative="1" as="geometry" />
        </mxCell>
        <mxCell id="c3zvvCpYIQOxK_N1lzKl-9" value="POST /auth/login with username and password" style="text;html=1;strokeColor=none;fillColor=none;align=center;verticalAlign=middle;whiteSpace=wrap;rounded=0;" vertex="1" parent="1">
          <mxGeometry x="210" y="70" width="260" height="30" as="geometry" />
        </mxCell>
        <mxCell id="c3zvvCpYIQOxK_N1lzKl-10" style="edgeStyle=elbowEdgeStyle;rounded=0;orthogonalLoop=1;jettySize=auto;html=1;elbow=vertical;curved=0;" edge="1" parent="1" source="c3zvvCpYIQOxK_N1lzKl-2" target="c3zvvCpYIQOxK_N1lzKl-4">
          <mxGeometry relative="1" as="geometry">
            <Array as="points">
              <mxPoint x="380" y="100" />
              <mxPoint x="320" y="110" />
              <mxPoint x="430" y="80" />
            </Array>
          </mxGeometry>
        </mxCell>
        <mxCell id="c3zvvCpYIQOxK_N1lzKl-12" value="Create JWT with ACCESS_TOKEN_SECRET" style="text;html=1;strokeColor=none;fillColor=none;align=center;verticalAlign=middle;whiteSpace=wrap;rounded=0;" vertex="1" parent="1">
          <mxGeometry x="510" y="80" width="170" height="30" as="geometry" />
        </mxCell>
        <mxCell id="c3zvvCpYIQOxK_N1lzKl-13" style="edgeStyle=elbowEdgeStyle;rounded=0;orthogonalLoop=1;jettySize=auto;html=1;elbow=vertical;curved=0;" edge="1" parent="1">
          <mxGeometry relative="1" as="geometry">
            <Array as="points">
              <mxPoint x="310" y="145" />
            </Array>
            <mxPoint x="495" y="145" as="sourcePoint" />
            <mxPoint x="185" y="145" as="targetPoint" />
          </mxGeometry>
        </mxCell>
        <mxCell id="c3zvvCpYIQOxK_N1lzKl-14" value="Return accessToken" style="text;html=1;strokeColor=none;fillColor=none;align=center;verticalAlign=middle;whiteSpace=wrap;rounded=0;" vertex="1" parent="1">
          <mxGeometry x="220" y="120" width="240" height="30" as="geometry" />
        </mxCell>
        <mxCell id="c3zvvCpYIQOxK_N1lzKl-19" value="Save accessToken to localStorage" style="text;html=1;strokeColor=none;fillColor=none;align=center;verticalAlign=middle;whiteSpace=wrap;rounded=0;" vertex="1" parent="1">
          <mxGeometry x="60" y="120" width="100" height="30" as="geometry" />
        </mxCell>
        <mxCell id="c3zvvCpYIQOxK_N1lzKl-20" style="edgeStyle=elbowEdgeStyle;rounded=0;orthogonalLoop=1;jettySize=auto;html=1;elbow=vertical;curved=0;" edge="1" parent="1" source="c3zvvCpYIQOxK_N1lzKl-2" target="c3zvvCpYIQOxK_N1lzKl-4">
          <mxGeometry relative="1" as="geometry">
            <Array as="points">
              <mxPoint x="390" y="190" />
            </Array>
          </mxGeometry>
        </mxCell>
        <mxCell id="c3zvvCpYIQOxK_N1lzKl-21" value="Send the JWT on the&amp;nbsp;Authorization Header" style="text;html=1;strokeColor=none;fillColor=none;align=center;verticalAlign=middle;whiteSpace=wrap;rounded=0;" vertex="1" parent="1">
          <mxGeometry x="220" y="165" width="240" height="30" as="geometry" />
        </mxCell>
        <mxCell id="c3zvvCpYIQOxK_N1lzKl-25" value="jwt.verify(token,ACCESS_TOKEN_SECRET)" style="text;html=1;strokeColor=none;fillColor=none;align=center;verticalAlign=middle;whiteSpace=wrap;rounded=0;" vertex="1" parent="1">
          <mxGeometry x="530" y="175" width="210" height="30" as="geometry" />
        </mxCell>
        <mxCell id="c3zvvCpYIQOxK_N1lzKl-26" style="edgeStyle=elbowEdgeStyle;rounded=0;orthogonalLoop=1;jettySize=auto;html=1;elbow=vertical;curved=0;" edge="1" parent="1" source="c3zvvCpYIQOxK_N1lzKl-4" target="c3zvvCpYIQOxK_N1lzKl-2">
          <mxGeometry relative="1" as="geometry">
            <Array as="points">
              <mxPoint x="330" y="230" />
            </Array>
          </mxGeometry>
        </mxCell>
        <mxCell id="c3zvvCpYIQOxK_N1lzKl-27" value="Send the response to client" style="text;html=1;strokeColor=none;fillColor=none;align=center;verticalAlign=middle;whiteSpace=wrap;rounded=0;" vertex="1" parent="1">
          <mxGeometry x="220" y="205" width="240" height="30" as="geometry" />
        </mxCell>
      </root>
    </mxGraphModel>
  </diagram>
</mxfile>
